<svg id="Layer_1" data-name="Layer 1" xmlns="http://www.w3.org/2000/svg" viewBox="0 0 100 100"><defs><style>.cls-1{fill:blue;}</style></defs><path class="cls-1" d="M63.5,4V32.2917A4.213,4.213,0,0,0,67.7083,36.5H96v27H67.7083A4.213,4.213,0,0,0,63.5,67.7083V96h-27V67.7083A4.213,4.213,0,0,0,32.2917,63.5H4v-27H32.2917A4.213,4.213,0,0,0,36.5,32.2917V4h27m3.7917-4H32.7083A.2084.2084,0,0,0,32.5.2083V32.2917a.2084.2084,0,0,1-.2083.2083H.2083A.2084.2084,0,0,0,0,32.7083V67.2917A.2084.2084,0,0,0,.2083,67.5H32.2917a.2084.2084,0,0,1,.2083.2083V99.7917a.2084.2084,0,0,0,.2083.2083H67.2917a.2084.2084,0,0,0,.2083-.2083V67.7083a.2084.2084,0,0,1,.2083-.2083H99.7917A.2084.2084,0,0,0,100,67.2917V32.7083a.2084.2084,0,0,0-.2083-.2083H67.7083a.2084.2084,0,0,1-.2083-.2083V.2083A.2084.2084,0,0,0,67.2917,0Z"/></svg>